<svg xmlns="http://www.w3.org/2000/svg" viewBox="0 0 512 512">
  <rect width="512" height="512" fill="#fff"/>
  <path transform="translate(26.04,438.71) scale(0.4628,-0.4628)"
        d="M839 440Q902 236 945 45Q950 23 937.0 3.5Q924 -16 901 -21L808 -39Q785 -44 765.0 -31.0Q745 -18 741 5Q701 194 648 385Q642 408 653.0 428.5Q664 449 686 456L768 479Q790 486 811.0 474.5Q832 463 839 440ZM360 713Q384 711 400.0 694.0Q416 677 415 653Q396 302 239 0Q228 -21 205.0 -28.5Q182 -36 160 -26L79 11Q58 21 50.5 43.0Q43 65 54 85Q191 354 214 664Q216 687 233.5 702.5Q251 718 274 717ZM691.0 726.0Q672 707 672.0 680.0Q672 653 691.0 634.0Q710 615 737.0 615.0Q764 615 783.0 634.0Q802 653 802.0 680.0Q802 707 783.0 726.0Q764 745 737.0 745.0Q710 745 691.0 726.0ZM843.0 786.0Q887 742 887.0 680.0Q887 618 843.0 574.0Q799 530 737.0 530.0Q675 530 631.0 574.0Q587 618 587.0 680.0Q587 742 631.0 786.0Q675 830 737.0 830.0Q799 830 843.0 786.0Z"
        fill="#2196F3"/>
</svg>
